REM DIRINDEX 1\2,1\3,1\4,1\5\6,1\5\7,1\8
REM DIRNAME folder01,folder02,folder03,folder04,folder05,folder06,folder07,folder08
TITLE ""
FILE "016 Åy016ÅzUnit1 (0181 fascination_0192 syndrome).mp3" MP3
  TRACK 01 AUDIO
    TITLE "0:"
    INDEX 01 00:00:00
  TRACK 02 AUDIO
    TITLE "2:cjc115_0542"
    INDEX 01 00:00:07
  TRACK 03 AUDIO
    TITLE "0:"
    INDEX 01 00:01:50
  TRACK 04 AUDIO
    TITLE "3:cjc115_0543"
    INDEX 01 00:01:62
  TRACK 05 AUDIO
    TITLE "0:"
    INDEX 01 00:03:39
  TRACK 06 AUDIO
    TITLE "4:cjc115_0544"
    INDEX 01 00:03:49
  TRACK 07 AUDIO
    TITLE "0:"
    INDEX 01 00:08:50
  TRACK 08 AUDIO
    TITLE "2:cjc115_0545"
    INDEX 01 00:09:61
  TRACK 09 AUDIO
    TITLE "0:"
    INDEX 01 00:11:15
  TRACK 10 AUDIO
    TITLE "3:cjc115_0546"
    INDEX 01 00:11:25
  TRACK 11 AUDIO
    TITLE "0:"
    INDEX 01 00:13:39
  TRACK 12 AUDIO
    TITLE "4:cjc115_0547"
    INDEX 01 00:13:49
  TRACK 13 AUDIO
    TITLE "0:"
    INDEX 01 00:18:07
  TRACK 14 AUDIO
    TITLE "2:cjc115_0548"
    INDEX 01 00:19:16
  TRACK 15 AUDIO
    TITLE "0:"
    INDEX 01 00:20:32
  TRACK 16 AUDIO
    TITLE "3:cjc115_0549"
    INDEX 01 00:20:41
  TRACK 17 AUDIO
    TITLE "0:"
    INDEX 01 00:21:64
  TRACK 18 AUDIO
    TITLE "4:cjc115_0550"
    INDEX 01 00:21:68
  TRACK 19 AUDIO
    TITLE "0:"
    INDEX 01 00:26:20
  TRACK 20 AUDIO
    TITLE "2:cjc115_0551"
    INDEX 01 00:27:28
  TRACK 21 AUDIO
    TITLE "0:"
    INDEX 01 00:28:68
  TRACK 22 AUDIO
    TITLE "3:cjc115_0552"
    INDEX 01 00:29:03
  TRACK 23 AUDIO
    TITLE "0:"
    INDEX 01 00:30:06
  TRACK 24 AUDIO
    TITLE "4:cjc115_0553"
    INDEX 01 00:30:16
  TRACK 25 AUDIO
    TITLE "0:"
    INDEX 01 00:33:73
  TRACK 26 AUDIO
    TITLE "2:cjc115_0554"
    INDEX 01 00:35:06
  TRACK 27 AUDIO
    TITLE "0:"
    INDEX 01 00:36:38
  TRACK 28 AUDIO
    TITLE "3:cjc115_0555"
    INDEX 01 00:36:44
  TRACK 29 AUDIO
    TITLE "0:"
    INDEX 01 00:38:26
  TRACK 30 AUDIO
    TITLE "4:cjc115_0556"
    INDEX 01 00:38:35
  TRACK 31 AUDIO
    TITLE "0:"
    INDEX 01 00:44:22
  TRACK 32 AUDIO
    TITLE "2:cjc115_0557"
    INDEX 01 00:45:28
  TRACK 33 AUDIO
    TITLE "0:"
    INDEX 01 00:46:58
  TRACK 34 AUDIO
    TITLE "3:cjc115_0558"
    INDEX 01 00:46:68
  TRACK 35 AUDIO
    TITLE "0:"
    INDEX 01 00:48:48
  TRACK 36 AUDIO
    TITLE "4:cjc115_0559"
    INDEX 01 00:48:67
  TRACK 37 AUDIO
    TITLE "0:"
    INDEX 01 00:53:60
  TRACK 38 AUDIO
    TITLE "2:cjc115_0560"
    INDEX 01 00:54:68
  TRACK 39 AUDIO
    TITLE "0:"
    INDEX 01 00:56:14
  TRACK 40 AUDIO
    TITLE "3:cjc115_0561"
    INDEX 01 00:56:24
  TRACK 41 AUDIO
    TITLE "0:"
    INDEX 01 00:58:58
  TRACK 42 AUDIO
    TITLE "4:cjc115_0562"
    INDEX 01 00:59:00
  TRACK 43 AUDIO
    TITLE "0:"
    INDEX 01 01:04:00
  TRACK 44 AUDIO
    TITLE "2:cjc115_0563"
    INDEX 01 01:05:21
  TRACK 45 AUDIO
    TITLE "0:"
    INDEX 01 01:06:49
  TRACK 46 AUDIO
    TITLE "3:cjc115_0564"
    INDEX 01 01:06:57
  TRACK 47 AUDIO
    TITLE "0:"
    INDEX 01 01:08:01
  TRACK 48 AUDIO
    TITLE "4:cjc115_0565"
    INDEX 01 01:08:09
  TRACK 49 AUDIO
    TITLE "0:"
    INDEX 01 01:12:07
  TRACK 50 AUDIO
    TITLE "2:cjc115_0566"
    INDEX 01 01:13:16
  TRACK 51 AUDIO
    TITLE "0:"
    INDEX 01 01:14:43
  TRACK 52 AUDIO
    TITLE "3:cjc115_0567"
    INDEX 01 01:14:49
  TRACK 53 AUDIO
    TITLE "0:"
    INDEX 01 01:16:71
  TRACK 54 AUDIO
    TITLE "4:cjc115_0568"
    INDEX 01 01:17:02
  TRACK 55 AUDIO
    TITLE "0:"
    INDEX 01 01:22:17
  TRACK 56 AUDIO
    TITLE "2:cjc115_0569"
    INDEX 01 01:23:26
  TRACK 57 AUDIO
    TITLE "0:"
    INDEX 01 01:24:49
  TRACK 58 AUDIO
    TITLE "3:cjc115_0570"
    INDEX 01 01:24:55
  TRACK 59 AUDIO
    TITLE "0:"
    INDEX 01 01:25:53
  TRACK 60 AUDIO
    TITLE "4:cjc115_0571"
    INDEX 01 01:25:62
  TRACK 61 AUDIO
    TITLE "0:"
    INDEX 01 01:29:19
  TRACK 62 AUDIO
    TITLE "2:cjc115_0572"
    INDEX 01 01:30:28
  TRACK 63 AUDIO
    TITLE "0:"
    INDEX 01 01:31:51
  TRACK 64 AUDIO
    TITLE "3:cjc115_0573"
    INDEX 01 01:31:59
  TRACK 65 AUDIO
    TITLE "0:"
    INDEX 01 01:34:57
  TRACK 66 AUDIO
    TITLE "4:cjc115_0574"
    INDEX 01 01:34:65
  TRACK 67 AUDIO
    TITLE "0:"
    INDEX 01 01:39:37
  TRACK 68 AUDIO
    TITLE "2:cjc115_0575"
    INDEX 01 01:40:46
  TRACK 69 AUDIO
    TITLE "0:"
    INDEX 01 01:41:69
  TRACK 70 AUDIO
    TITLE "3:cjc115_0576"
    INDEX 01 01:42:04
  TRACK 71 AUDIO
    TITLE "0:"
    INDEX 01 01:43:31
  TRACK 72 AUDIO
    TITLE "4:cjc115_0577"
    INDEX 01 01:43:41
  TRACK 73 AUDIO
    TITLE "0:"
    INDEX 01 01:47:33
